grf
version=1
nRows=6
nColumns=37
inDegrees=no
endheader
time	ground_force_1_vx	ground_force_1_vy	ground_force_1_vz	ground_force_1_px	ground_force_1_py	ground_force_1_pz	ground_moment_1_mx	ground_moment_1_my	ground_moment_1_mz	ground_force_2_vx	ground_force_2_vy	ground_force_2_vz	ground_force_2_px	ground_force_2_py	ground_force_2_pz	ground_moment_2_mx	ground_moment_2_my	ground_moment_2_mz	ground_force_3_vx	ground_force_3_vy	ground_force_3_vz	ground_force_3_px	ground_force_3_py	ground_force_3_pz	ground_moment_3_mx	ground_moment_3_my	ground_moment_3_mz	ground_force_4_vx	ground_force_4_vy	ground_force_4_vz	ground_force_4_px	ground_force_4_py	ground_force_4_pz	ground_moment_4_mx	ground_moment_4_my	ground_moment_4_mz
      0.00000000	      0.00000000	     -0.00000000	      0.00000000	      0.00000000	      0.00000000	      0.00000000	      0.00000000	      0.00000000	      0.00000000	     -2.23026276	     13.78128242	   -155.49668884	   -275.17117831	   -991.81180999	      0.00000000	      0.00000000	      0.00000000	   2653.76468183	     13.04048368	    -19.43077201	   -621.99499512	   -346.92338052	   -744.97227492	      0.00000000	      0.00000000	     -0.00000000	  -3254.37966275	      0.00000000	     -0.00000000	      0.00000000	      0.00000000	      0.00000000	      0.00000000	      0.00000000	      0.00000000	      0.00000000
      0.01000000	      0.00000000	     -0.00000000	      0.00000000	      0.00000000	      0.00000000	      0.00000000	      0.00000000	      0.00000000	      0.00000000	     -3.57485914	     14.43006802	   -163.81410217	   -274.69065971	   -991.62028810	      0.00000000	      0.00000000	      0.00000000	   2642.98184882	     13.45955295	    -19.71092914	   -616.48162842	   -348.37794385	   -745.96390465	      0.00000000	      0.00000000	     -0.00000000	  -3271.36399373	      0.00000000	     -0.00000000	      0.00000000	      0.00000000	      0.00000000	      0.00000000	      0.00000000	      0.00000000	      0.00000000
      0.02000000	      0.00000000	     -0.00000000	      0.00000000	      0.00000000	      0.00000000	      0.00000000	      0.00000000	      0.00000000	      0.00000000	     -3.92526245	     15.01407528	   -172.60797119	   -276.21098660	   -991.66961314	      0.00000000	      0.00000000	      0.00000000	   2736.21203142	     13.86329958	    -19.43969848	   -615.39739990	   -349.12482773	   -744.91001548	      0.00000000	      0.00000000	      0.00000000	  -3153.31020753	      0.00000000	     -0.00000000	      0.00000000	      0.00000000	      0.00000000	      0.00000000	      0.00000000	      0.00000000	      0.00000000
      0.03000000	      0.00000000	     -0.00000000	      0.00000000	      0.00000000	      0.00000000	      0.00000000	      0.00000000	      0.00000000	      0.00000000	     -4.45310116	     14.98981953	   -181.24435425	   -275.62070613	   -993.16266839	      0.00000000	      0.00000000	      0.00000000	   2964.18330040	     14.49121210	    -19.40653546	   -610.82373047	   -350.49267350	   -745.31102457	      0.00000000	      0.00000000	     -0.00000000	  -3236.77105793	      0.00000000	     -0.00000000	      0.00000000	      0.00000000	      0.00000000	      0.00000000	      0.00000000	      0.00000000	      0.00000000
      0.04000000	      0.00000000	     -0.00000000	      0.00000000	      0.00000000	      0.00000000	      0.00000000	      0.00000000	      0.00000000	      0.00000000	     -5.74171734	     15.60569572	   -190.49305725	   -276.65086226	   -995.30597542	      0.00000000	      0.00000000	      0.00000000	   3011.87327610	     13.83888078	    -19.10165717	   -606.12719727	   -351.95801827	   -745.23008113	      0.00000000	      0.00000000	     -0.00000000	  -2958.88204296	      0.00000000	     -0.00000000	      0.00000000	      0.00000000	      0.00000000	      0.00000000	      0.00000000	      0.00000000	      0.00000000
      0.05000000	      0.00000000	     -0.00000000	      0.00000000	      0.00000000	      0.00000000	      0.00000000	      0.00000000	      0.00000000	      0.00000000	     -6.69919825	     16.03554153	   -198.23008728	   -275.32866900	   -993.62334916	      0.00000000	      0.00000000	      0.00000000	   3139.73651379	     14.19372391	    -19.21400385	   -599.77911377	   -352.91018146	   -745.55653703	      0.00000000	      0.00000000	     -0.00000000	  -3057.12476488	      0.00000000	     -0.00000000	      0.00000000	      0.00000000	      0.00000000	      0.00000000	      0.00000000	      0.00000000	      0.00000000
